<svg width="20" height="16" viewBox="0 0 20 16" fill="none" xmlns="http://www.w3.org/2000/svg">
<path d="M9.97656 6.40234C10.1328 6.08984 10.4648 5.875 10.8164 5.875H13.0625V8.375H9L9.97656 6.40234ZM13.6875 8.375V5.875H15.9141C16.2656 5.875 16.5977 6.08984 16.7539 6.40234L17.75 8.375H13.6875ZM17.75 9V13.375C17.75 14.0781 17.1836 14.625 16.5 14.625H10.25C9.54688 14.625 9 14.0781 9 13.375V9H17.75Z" fill="#E03030"/>
<path fill-rule="evenodd" clip-rule="evenodd" d="M3.3125 2.0625V2.9375H11.1875V2.0625H3.3125ZM3.09375 0.75H11.4062C12.0078 0.75 12.5 1.24219 12.5 1.84375V3.15625C12.5 3.78516 12.0078 4.25 11.4062 4.25H3.09375C2.46484 4.25 2 3.78516 2 3.15625V1.84375C2 1.24219 2.46484 0.75 3.09375 0.75ZM2.875 5.125H4.1875V5.5625H5.71875C6.07422 5.5625 6.375 5.86328 6.375 6.21875C6.375 6.60156 6.07422 6.875 5.71875 6.875H4.1875V8.1875H5.71875C6.07422 8.1875 6.375 8.48828 6.375 8.84375C6.375 9.22656 6.07422 9.5 5.71875 9.5H4.1875V10.8125H5.71875C6.07422 10.8125 6.375 11.1133 6.375 11.4688C6.375 11.8516 6.07422 12.125 5.71875 12.125H4.1875V13C4.1875 13.2461 4.37891 13.4375 4.625 13.4375H8.00082C8.01392 13.9337 8.18269 14.3866 8.46083 14.75H4.625C3.64062 14.75 2.875 13.9844 2.875 13V5.125ZM9.01342 13.5637C9.00746 13.5223 9.00343 13.4802 9.00144 13.4375H9.00145C9.00344 13.4802 9.00746 13.5223 9.01342 13.5637Z" fill="#E03030"/>
</svg>
