<svg width="22" height="18" viewBox="0 0 22 18" fill="none" xmlns="http://www.w3.org/2000/svg">
<path fill-rule="evenodd" clip-rule="evenodd" d="M5.1056 7.125H4.875V15C4.875 15.9844 5.64062 16.75 6.625 16.75H11.875C12.832 16.75 13.625 15.9844 13.625 15V13.8024L12.3125 12.7736V15C12.3125 15.2461 12.0938 15.4375 11.875 15.4375H6.625C6.37891 15.4375 6.1875 15.2461 6.1875 15V14.125H7.71875C8.07422 14.125 8.375 13.8516 8.375 13.4688C8.375 13.1133 8.07422 12.8125 7.71875 12.8125H6.1875V11.5H7.71875C8.07422 11.5 8.375 11.2266 8.375 10.8438C8.375 10.4883 8.07422 10.1875 7.71875 10.1875H6.1875V8.875H7.33836L5.1056 7.125ZM12.3125 10.9071L13.625 11.9358V7.125H12.3125V10.9071ZM6.37069 6.25L4 4.39189V3.84375C4 3.24219 4.46484 2.75 5.09375 2.75H13.4062C14.0078 2.75 14.5 3.24219 14.5 3.84375V5.15625C14.5 5.78516 14.0078 6.25 13.4062 6.25H6.37069ZM5.3125 4.9375V4.0625H13.1875V4.9375H5.3125Z" fill="#E03030"/>
<path d="M1.15625 1.3125C1.40625 0.96875 1.875 0.90625 2.1875 1.1875L20.6875 15.6875C21.0312 15.9375 21.0938 16.4062 20.8125 16.7188C20.5625 17.0625 20.0938 17.125 19.7812 16.8438L1.28125 2.34375C0.9375 2.09375 0.875 1.625 1.15625 1.3125Z" fill="#941019"/>
</svg>
