<svg width="16" height="16" viewBox="0 0 16 16" fill="none" xmlns="http://www.w3.org/2000/svg">
<path d="M11 15.25C9.20312 15.25 7.5625 14.3125 6.66406 12.75C5.76562 11.207 5.76562 9.3125 6.66406 7.75C7.5625 6.20703 9.20312 5.25 11 5.25C12.7773 5.25 14.418 6.20703 15.3164 7.75C16.2148 9.3125 16.2148 11.207 15.3164 12.75C14.418 14.3125 12.7773 15.25 11 15.25ZM9.30078 8.49219V8.51172C9.22266 8.74609 9.33984 9.01953 9.59375 9.11719C9.82812 9.19531 10.1016 9.07812 10.1797 8.82422L10.1992 8.80469C10.2188 8.74609 10.2773 8.70703 10.3359 8.70703H11.4688C11.6445 8.70703 11.7812 8.82422 11.7812 9C11.7812 9.09766 11.7227 9.19531 11.625 9.25391L10.7656 9.74219C10.6094 9.82031 10.5312 9.97656 10.5312 10.1523V10.4062C10.5312 10.6797 10.7266 10.875 11 10.875C11.2539 10.875 11.4492 10.6797 11.4688 10.4258L12.0938 10.0547C12.4648 9.83984 12.7188 9.42969 12.7188 9C12.7188 8.31641 12.1523 7.75 11.4688 7.75H10.3359C9.86719 7.75 9.45703 8.04297 9.30078 8.49219ZM10.375 12.125C10.375 12.4766 10.6484 12.75 11 12.75C11.332 12.75 11.625 12.4766 11.625 12.125C11.625 11.793 11.332 11.5 11 11.5C10.6484 11.5 10.375 11.793 10.375 12.125Z" fill="#00347D"/>
<path fill-rule="evenodd" clip-rule="evenodd" d="M1.3125 2.0625V2.9375H9.1875V2.0625H1.3125ZM1.09375 0.75H9.40625C10.0078 0.75 10.5 1.24219 10.5 1.84375V3.15625C10.5 3.78516 10.0078 4.25 9.40625 4.25H1.09375C0.464844 4.25 0 3.78516 0 3.15625V1.84375C0 1.24219 0.464844 0.75 1.09375 0.75ZM0.875 5.125H2.1875V5.5625H3.71875C4.07422 5.5625 4.375 5.86328 4.375 6.21875C4.375 6.60156 4.07422 6.875 3.71875 6.875H2.1875V8.1875H3.71875C4.07422 8.1875 4.375 8.48828 4.375 8.84375C4.375 9.22656 4.07422 9.5 3.71875 9.5H2.1875V10.8125H3.71875C4.07422 10.8125 4.375 11.1133 4.375 11.4688C4.375 11.8516 4.07422 12.125 3.71875 12.125H2.1875V13C2.1875 13.2461 2.37891 13.4375 2.625 13.4375H5.91044C6.22039 13.9341 6.59478 14.3741 7.01916 14.75H2.625C1.64062 14.75 0.875 13.9844 0.875 13V5.125ZM9.51561 8.12108C9.51044 8.127 9.50532 8.13298 9.50027 8.13901C9.50532 8.13298 9.51044 8.127 9.51561 8.12108Z" fill="#136BC9"/>
</svg>
