<svg width="20" height="16" viewBox="0 0 20 16" fill="none" xmlns="http://www.w3.org/2000/svg">
<path d="M5.3125 2.0625V2.9375H13.1875V2.0625H5.3125ZM5.09375 0.75H13.4062C14.0078 0.75 14.5 1.24219 14.5 1.84375V3.15625C14.5 3.78516 14.0078 4.25 13.4062 4.25H5.09375C4.46484 4.25 4 3.78516 4 3.15625V1.84375C4 1.24219 4.46484 0.75 5.09375 0.75ZM4.875 5.125H6.1875V5.5625H7.71875C8.07422 5.5625 8.375 5.86328 8.375 6.21875C8.375 6.60156 8.07422 6.875 7.71875 6.875H6.1875V8.1875H7.71875C8.07422 8.1875 8.375 8.48828 8.375 8.84375C8.375 9.22656 8.07422 9.5 7.71875 9.5H6.1875V10.8125H7.71875C8.07422 10.8125 8.375 11.1133 8.375 11.4688C8.375 11.8516 8.07422 12.125 7.71875 12.125H6.1875V13C6.1875 13.2461 6.37891 13.4375 6.625 13.4375H11.875C12.0938 13.4375 12.3125 13.2461 12.3125 13V5.125H13.625V13C13.625 13.9844 12.832 14.75 11.875 14.75H6.625C5.64062 14.75 4.875 13.9844 4.875 13V5.125Z" fill="#B37E15"/>
</svg>
