<svg width="20" height="16" viewBox="0 0 20 16" fill="none" xmlns="http://www.w3.org/2000/svg">
<path d="M13 15.25C11.2031 15.25 9.5625 14.3125 8.66406 12.75C7.76562 11.207 7.76562 9.3125 8.66406 7.75C9.5625 6.20703 11.2031 5.25 13 5.25C14.7773 5.25 16.418 6.20703 17.3164 7.75C18.2148 9.3125 18.2148 11.207 17.3164 12.75C16.418 14.3125 14.7773 15.25 13 15.25ZM11.6328 7.92578C11.457 7.73047 11.1641 7.71094 10.9688 7.86719C10.7734 8.04297 10.7539 8.33594 10.9102 8.53125L12.375 10.25L10.9102 11.9883C10.7539 12.1836 10.7734 12.4766 10.9688 12.6523C11.1641 12.8086 11.457 12.7891 11.6328 12.5938L13 10.9922L14.3477 12.5938C14.5234 12.7891 14.8164 12.8086 15.0117 12.6523C15.207 12.4766 15.2266 12.1836 15.0703 11.9883L13.6055 10.25L15.0703 8.53125C15.2266 8.33594 15.207 8.04297 15.0117 7.86719C14.8164 7.71094 14.5234 7.73047 14.3477 7.92578L13 9.52734L11.6328 7.92578Z" fill="#941019"/>
<path fill-rule="evenodd" clip-rule="evenodd" d="M3.3125 2.0625V2.9375H11.1875V2.0625H3.3125ZM3.09375 0.75H11.4062C12.0078 0.75 12.5 1.24219 12.5 1.84375V3.15625C12.5 3.78516 12.0078 4.25 11.4062 4.25H3.09375C2.46484 4.25 2 3.78516 2 3.15625V1.84375C2 1.24219 2.46484 0.75 3.09375 0.75ZM2.875 5.125H4.1875V5.5625H5.71875C6.07422 5.5625 6.375 5.86328 6.375 6.21875C6.375 6.60156 6.07422 6.875 5.71875 6.875H4.1875V8.1875H5.71875C6.07422 8.1875 6.375 8.48828 6.375 8.84375C6.375 9.22656 6.07422 9.5 5.71875 9.5H4.1875V10.8125H5.71875C6.07422 10.8125 6.375 11.1133 6.375 11.4688C6.375 11.8516 6.07422 12.125 5.71875 12.125H4.1875V13C4.1875 13.2461 4.37891 13.4375 4.625 13.4375H7.91044C8.22039 13.9341 8.59478 14.3741 9.01916 14.75H4.625C3.64062 14.75 2.875 13.9844 2.875 13V5.125Z" fill="#E03030"/>
</svg>
