<svg width="21" height="17" viewBox="0 0 21 17" fill="none" xmlns="http://www.w3.org/2000/svg">
<path fill-rule="evenodd" clip-rule="evenodd" d="M5.1056 6.125H4.875V14C4.875 14.9844 5.64062 15.75 6.625 15.75H11.0192C10.5948 15.3741 10.2204 14.9341 9.91044 14.4375H6.625C6.37891 14.4375 6.1875 14.2461 6.1875 14V13.125H7.71875C8.07422 13.125 8.375 12.8516 8.375 12.4688C8.375 12.1133 8.07422 11.8125 7.71875 11.8125H6.1875V10.5H7.71875C8.07422 10.5 8.375 10.2266 8.375 9.84375C8.375 9.48828 8.07422 9.1875 7.71875 9.1875H6.1875V7.875H7.33836L5.1056 6.125ZM10.1348 10.0668C9.83036 11.3042 10.0068 12.6212 10.6641 13.75C11.5625 15.3125 13.2031 16.25 15 16.25C15.8167 16.25 16.6045 16.0521 17.3047 15.6865L14.8266 13.7442C13.7831 13.6736 12.9208 12.9705 12.6171 12.0124L10.1348 10.0668ZM13.4931 10.8325C13.6728 10.1741 14.2688 9.6875 15 9.6875C15.3906 9.6875 15.7617 9.84375 16.0352 10.0977C16.2305 10.2734 16.5234 10.2539 16.6992 10.0586C16.875 9.86328 16.8555 9.57031 16.6602 9.39453C16.2109 9.00391 15.625 8.75 15 8.75C13.9818 8.75 13.111 9.36074 12.7201 10.2266L10.7189 8.65806C11.6282 7.1691 13.2391 6.25 15 6.25C16.7773 6.25 18.418 7.20703 19.3164 8.75C20.2148 10.3125 20.2148 12.207 19.3164 13.75C19.0963 14.1328 18.8316 14.4781 18.5313 14.7813L16.5377 13.2187C17.1213 12.7621 17.5 12.0517 17.5 11.25C17.5 10.9961 17.2852 10.7812 17.0312 10.7812H15.4688C15.1953 10.7812 15 10.9961 15 11.25C15 11.5234 15.1953 11.7188 15.4688 11.7188H16.4844C16.3674 12.1047 16.1034 12.4206 15.7636 12.612L13.4931 10.8325ZM6.37069 5.25H13.4062C14.0078 5.25 14.5 4.78516 14.5 4.15625V2.84375C14.5 2.24219 14.0078 1.75 13.4062 1.75H5.09375C4.46484 1.75 4 2.24219 4 2.84375V3.39189L6.37069 5.25ZM5.3125 3.0625V3.9375H13.1875V3.0625H5.3125Z" fill="#E03030"/>
<path d="M1.15625 0.312498C1.40625 -0.0312517 1.875 -0.0937517 2.1875 0.187498L20.6875 14.6875C21.0312 14.9375 21.0937 15.4062 20.8125 15.7187C20.5625 16.0625 20.0937 16.125 19.7812 15.8437L1.28125 1.34375C0.937498 1.09375 0.874998 0.624998 1.15625 0.312498Z" fill="#941019"/>
</svg>
