<svg width="20" height="16" viewBox="0 0 20 16" fill="none" xmlns="http://www.w3.org/2000/svg">
<path d="M13 15.25C11.2031 15.25 9.5625 14.3125 8.66406 12.75C7.76562 11.207 7.76562 9.3125 8.66406 7.75C9.5625 6.20703 11.2031 5.25 13 5.25C14.7773 5.25 16.418 6.20703 17.3164 7.75C18.2148 9.3125 18.2148 11.207 17.3164 12.75C16.418 14.3125 14.7773 15.25 13 15.25ZM11.6328 7.92578C11.457 7.73047 11.1641 7.71094 10.9688 7.86719C10.7734 8.04297 10.7539 8.33594 10.9102 8.53125L12.375 10.25L10.9102 11.9883C10.7539 12.1836 10.7734 12.4766 10.9688 12.6523C11.1641 12.8086 11.457 12.7891 11.6328 12.5938L13 10.9922L14.3477 12.5938C14.5234 12.7891 14.8164 12.8086 15.0117 12.6523C15.207 12.4766 15.2266 12.1836 15.0703 11.9883L13.6055 10.25L15.0703 8.53125C15.2266 8.33594 15.207 8.04297 15.0117 7.86719C14.8164 7.71094 14.5234 7.73047 14.3477 7.92578L13 9.52734L11.6328 7.92578Z" fill="#941019"/>
<path fill-rule="evenodd" clip-rule="evenodd" d="M3.3125 13C3.3125 13.2461 3.50391 13.4375 3.75 13.4375H7.91044C8.22039 13.9341 8.59478 14.3741 9.01916 14.75H3.75C2.76562 14.75 2 13.9844 2 13V2.5C2 1.54297 2.76562 0.75 3.75 0.75H8.26172C8.72656 0.75 9.16406 0.941406 9.49219 1.26953L11.9805 3.75781C12.1349 3.91227 12.2591 4.09097 12.3473 4.28534C11.4607 4.38177 10.6202 4.67283 9.87778 5.125H9C8.50781 5.125 8.125 4.74219 8.125 4.25V2.0625H3.75C3.50391 2.0625 3.3125 2.28125 3.3125 2.5V13ZM10.8037 14.7492C10.1661 14.4401 9.59771 13.9957 9.13901 13.4375H9.13956C9.59204 13.9858 10.1597 14.435 10.8066 14.7491C10.8056 14.7491 10.8046 14.7492 10.8037 14.7492ZM8.00151 10.3752L7.99164 10.3753C7.99922 10.6939 8.03754 11.0118 8.10661 11.3244L8.12166 11.3575C8.05075 11.0407 8.00968 10.7122 8.00151 10.3752ZM7.29186 12.1275C7.01178 11.2826 6.92698 10.3908 7.03652 9.51575C6.93141 9.24965 6.65321 9.0625 6.375 9.0625C6.04688 9.0625 5.74609 9.28125 5.66406 9.60938L5.25391 10.9492C5.19922 11.1406 5.03516 11.25 4.84375 11.25H4.625C4.37891 11.25 4.1875 11.4688 4.1875 11.6875C4.1875 11.9336 4.37891 12.125 4.625 12.125H4.84375C5.41797 12.125 5.9375 11.7695 6.10156 11.1953L6.375 10.293L6.8125 11.8242C6.86719 11.9883 7.03125 12.125 7.19531 12.125C7.22841 12.1297 7.26068 12.1304 7.29186 12.1275ZM4.625 3.375H6.8125C7.03125 3.375 7.25 3.59375 7.25 3.8125C7.25 4.05859 7.03125 4.25 6.8125 4.25H4.625C4.37891 4.25 4.1875 4.05859 4.1875 3.8125C4.1875 3.59375 4.37891 3.375 4.625 3.375ZM4.625 5.125H6.8125C7.03125 5.125 7.25 5.34375 7.25 5.5625C7.25 5.80859 7.03125 6 6.8125 6H4.625C4.37891 6 4.1875 5.80859 4.1875 5.5625C4.1875 5.34375 4.37891 5.125 4.625 5.125Z" fill="#E03030"/>
</svg>
