<svg width="20" height="16" viewBox="0 0 20 16" fill="none" xmlns="http://www.w3.org/2000/svg">
<path d="M13 15.25C10.2266 15.25 8 13.0234 8 10.25C8 7.49609 10.2266 5.25 13 5.25C15.7539 5.25 18 7.49609 18 10.25C18 13.0234 15.7539 15.25 13 15.25ZM15.207 9.33203H15.1875C15.3828 9.15625 15.3828 8.86328 15.1875 8.66797C15.0117 8.49219 14.7188 8.49219 14.543 8.66797L12.375 10.8555L11.457 9.9375C11.2617 9.74219 10.9688 9.74219 10.793 9.9375C10.5977 10.1133 10.5977 10.4062 10.793 10.582L12.043 11.832C12.2188 12.0273 12.5117 12.0273 12.707 11.832L15.207 9.33203Z" fill="#16611D"/>
<path fill-rule="evenodd" clip-rule="evenodd" d="M3.3125 2.0625V2.9375H11.1875V2.0625H3.3125ZM3.09375 0.75H11.4062C12.0078 0.75 12.5 1.24219 12.5 1.84375V3.15625C12.5 3.78516 12.0078 4.25 11.4062 4.25H3.09375C2.46484 4.25 2 3.78516 2 3.15625V1.84375C2 1.24219 2.46484 0.75 3.09375 0.75ZM2.875 5.125H4.1875V5.5625H5.71875C6.07422 5.5625 6.375 5.86328 6.375 6.21875C6.375 6.60156 6.07422 6.875 5.71875 6.875H4.1875V8.1875H5.71875C6.07422 8.1875 6.375 8.48828 6.375 8.84375C6.375 9.22656 6.07422 9.5 5.71875 9.5H4.1875V10.8125H5.71875C6.07422 10.8125 6.375 11.1133 6.375 11.4688C6.375 11.8516 6.07422 12.125 5.71875 12.125H4.1875V13C4.1875 13.2461 4.37891 13.4375 4.625 13.4375H7.91044C8.22039 13.9341 8.59478 14.3741 9.01916 14.75H4.625C3.64062 14.75 2.875 13.9844 2.875 13V5.125ZM10.5488 14.6164C10.0143 14.3178 9.53566 13.9202 9.13901 13.4375H9.13956C9.53138 13.9123 10.0096 14.3128 10.5508 14.6156C10.5501 14.6159 10.5495 14.6161 10.5488 14.6164Z" fill="#26882B"/>
</svg>
