<svg width="20" height="16" viewBox="0 0 20 16" fill="none" xmlns="http://www.w3.org/2000/svg">
<path d="M13 15.25C11.2031 15.25 9.5625 14.3125 8.66406 12.75C7.76562 11.207 7.76562 9.3125 8.66406 7.75C9.5625 6.20703 11.2031 5.25 13 5.25C14.7773 5.25 16.418 6.20703 17.3164 7.75C18.2148 9.3125 18.2148 11.207 17.3164 12.75C16.418 14.3125 14.7773 15.25 13 15.25ZM11.4375 10.25C11.4375 9.39062 12.1211 8.6875 13 8.6875C13.3906 8.6875 13.7617 8.84375 14.0352 9.09766C14.2305 9.27344 14.5234 9.25391 14.6992 9.05859C14.875 8.86328 14.8555 8.57031 14.6602 8.39453C14.2109 8.00391 13.625 7.75 13 7.75C11.6133 7.75 10.5 8.88281 10.5 10.25C10.5 11.6367 11.6133 12.75 13 12.75C14.3672 12.75 15.5 11.6367 15.5 10.25C15.5 9.99609 15.2852 9.78125 15.0312 9.78125H13.4688C13.1953 9.78125 13 9.99609 13 10.25C13 10.5234 13.1953 10.7188 13.4688 10.7188H14.4844C14.2891 11.3633 13.6836 11.8125 13 11.8125C12.1211 11.8125 11.4375 11.1289 11.4375 10.25Z" fill="#16611D"/>
<path fill-rule="evenodd" clip-rule="evenodd" d="M3.3125 2.0625V2.9375H11.1875V2.0625H3.3125ZM3.09375 0.75H11.4062C12.0078 0.75 12.5 1.24219 12.5 1.84375V3.15625C12.5 3.78516 12.0078 4.25 11.4062 4.25H3.09375C2.46484 4.25 2 3.78516 2 3.15625V1.84375C2 1.24219 2.46484 0.75 3.09375 0.75ZM2.875 5.125H4.1875V5.5625H5.71875C6.07422 5.5625 6.375 5.86328 6.375 6.21875C6.375 6.60156 6.07422 6.875 5.71875 6.875H4.1875V8.1875H5.71875C6.07422 8.1875 6.375 8.48828 6.375 8.84375C6.375 9.22656 6.07422 9.5 5.71875 9.5H4.1875V10.8125H5.71875C6.07422 10.8125 6.375 11.1133 6.375 11.4688C6.375 11.8516 6.07422 12.125 5.71875 12.125H4.1875V13C4.1875 13.2461 4.37891 13.4375 4.625 13.4375H7.91044C8.22039 13.9341 8.59478 14.3741 9.01916 14.75H4.625C3.64062 14.75 2.875 13.9844 2.875 13V5.125ZM10.5488 14.6164C10.0143 14.3178 9.53566 13.9202 9.13901 13.4375H9.13956C9.53138 13.9123 10.0096 14.3128 10.5508 14.6156C10.5501 14.6159 10.5495 14.6161 10.5488 14.6164Z" fill="#26882B"/>
</svg>
