<svg width="20" height="16" viewBox="0 0 20 16" fill="none" xmlns="http://www.w3.org/2000/svg">
<path d="M10.25 5.875H16.5C17.1836 5.875 17.75 6.44141 17.75 7.125V13.375C17.75 14.0781 17.1836 14.625 16.5 14.625H10.25C9.54688 14.625 9 14.0781 9 13.375V7.125C9 6.44141 9.54688 5.875 10.25 5.875ZM12.418 9.09766C12.4375 8.98047 12.5156 8.86328 12.7305 8.78516C12.9453 8.70703 13.2578 8.66797 13.6484 8.72656C13.7656 8.74609 14.0586 8.80469 14.1953 8.84375C14.4297 8.90234 14.7031 8.74609 14.7617 8.49219C14.8203 8.25781 14.6641 8.00391 14.4297 7.92578C14.2734 7.88672 13.9609 7.82812 13.8047 7.80859C13.2969 7.73047 12.7891 7.75 12.3789 7.90625C11.9492 8.08203 11.5977 8.41406 11.5 8.92188C11.4414 9.21484 11.4805 9.46875 11.5781 9.72266C11.6953 9.95703 11.8711 10.1133 12.0469 10.25C12.3984 10.4648 12.8477 10.6016 13.1992 10.6992L13.2383 10.7188C13.6484 10.8164 13.9609 10.9141 14.1562 11.0508C14.2344 11.1094 14.2734 11.168 14.293 11.207C14.3125 11.2461 14.332 11.3047 14.3125 11.4219C14.293 11.5391 14.2148 11.6562 14 11.7344C13.8047 11.8125 13.4727 11.8516 13.082 11.793C12.8477 11.7539 12.3789 11.6172 12.1055 11.5391C11.8516 11.4414 11.5977 11.5781 11.5195 11.832C11.4219 12.0859 11.5586 12.3398 11.8125 12.418C12.0859 12.5156 12.6133 12.6719 12.9258 12.7109C13.4336 12.7891 13.9414 12.7695 14.3516 12.6133C14.7812 12.4375 15.1328 12.1055 15.2305 11.5977C15.2891 11.3047 15.25 11.0508 15.1523 10.7969C15.0352 10.5625 14.8594 10.4062 14.6836 10.2695C14.332 10.0547 13.8828 9.91797 13.5312 9.82031L13.4922 9.80078C13.082 9.68359 12.7695 9.60547 12.5742 9.46875C12.4961 9.41016 12.457 9.35156 12.4375 9.3125C12.418 9.27344 12.3984 9.21484 12.418 9.09766Z" fill="#16611D"/>
<path fill-rule="evenodd" clip-rule="evenodd" d="M3.3125 2.0625V2.9375H11.1875V2.0625H3.3125ZM3.09375 0.75H11.4062C12.0078 0.75 12.5 1.24219 12.5 1.84375V3.15625C12.5 3.78516 12.0078 4.25 11.4062 4.25H3.09375C2.46484 4.25 2 3.78516 2 3.15625V1.84375C2 1.24219 2.46484 0.75 3.09375 0.75ZM2.875 5.125H4.1875V5.5625H5.71875C6.07422 5.5625 6.375 5.86328 6.375 6.21875C6.375 6.60156 6.07422 6.875 5.71875 6.875H4.1875V8.1875H5.71875C6.07422 8.1875 6.375 8.48828 6.375 8.84375C6.375 9.22656 6.07422 9.5 5.71875 9.5H4.1875V10.8125H5.71875C6.07422 10.8125 6.375 11.1133 6.375 11.4688C6.375 11.8516 6.07422 12.125 5.71875 12.125H4.1875V13C4.1875 13.2461 4.37891 13.4375 4.625 13.4375H8.00082C8.01393 13.9337 8.18269 14.3866 8.46084 14.75H4.625C3.64062 14.75 2.875 13.9844 2.875 13V5.125ZM11.5781 9.72266L11.5861 9.73822C11.588 9.74199 11.59 9.74574 11.592 9.74946C11.5873 9.74064 11.5826 9.73171 11.5781 9.72266ZM11.4958 8.94395L11.5 8.92188C11.4985 8.92926 11.4971 8.93662 11.4958 8.94395Z" fill="#26882B"/>
</svg>
