<svg width="23" height="17" viewBox="0 0 23 17" fill="none" xmlns="http://www.w3.org/2000/svg">
<path d="M10.25 6.25V7.125C10.25 7.61719 9.83984 8 9.375 8C8.88281 8 8.5 7.61719 8.5 7.125V6.25C8.5 4.80078 9.67578 3.625 11.125 3.625C12.5742 3.625 13.75 4.80078 13.75 6.25V6.46875C13.75 7.04297 13.6953 7.61719 13.6406 8.19141L16.9766 7.17969C17.3047 7.07031 17.6328 7.17969 17.8789 7.39844C18.0977 7.64453 18.1797 7.97266 18.0703 8.30078L17.5781 9.75H19.875C20.3398 9.75 20.75 10.1602 20.75 10.625C20.75 11.1172 20.3398 11.5 19.875 11.5H16.375C16.0742 11.5 15.8281 11.3633 15.6641 11.1445C15.5 10.9258 15.4453 10.625 15.5273 10.3516L15.8828 9.33984L13.2852 10.1055C12.957 11.5547 12.4375 12.9492 11.6992 14.2344L11.3164 14.8906C10.9609 15.5195 10.3047 15.875 9.59375 15.875C8.5 15.875 7.625 15 7.625 13.9062V11.9375C7.625 10.7891 8.36328 9.75 9.48438 9.42188L11.7812 8.73828C11.918 8 12 7.23438 12 6.46875V6.25C12 5.78516 11.5898 5.375 11.125 5.375C10.6328 5.375 10.25 5.78516 10.25 6.25ZM9.97656 11.0898C9.62109 11.1992 9.34766 11.5547 9.34766 11.9375V13.9062C9.34766 14.043 9.45703 14.1523 9.59375 14.1523C9.67578 14.1523 9.75781 14.0977 9.78516 14.0156L10.168 13.3594C10.6602 12.5117 11.043 11.6367 11.3164 10.707L9.97656 11.0898ZM5.65625 12.8125H6.75V13.9062C6.75 13.9883 6.75 14.0703 6.75 14.125H5.65625C5.27344 14.125 5 13.8516 5 13.4688C5 13.1133 5.27344 12.8125 5.65625 12.8125ZM21.8438 14.125H12.7383C12.957 13.7148 13.1758 13.2773 13.3398 12.8125H21.8438C22.1992 12.8125 22.5 13.1133 22.5 13.4688C22.5 13.8516 22.1992 14.125 21.8438 14.125Z" fill="#941019"/>
<path fill-rule="evenodd" clip-rule="evenodd" d="M1.3125 2.0625V2.9375H9.1875V2.0625H1.3125ZM1.09375 0.75H9.40625C10.0078 0.75 10.5 1.24219 10.5 1.84375V2.67872C9.50034 2.85256 8.64102 3.43614 8.10147 4.25H1.09375C0.464844 4.25 0 3.78516 0 3.15625V1.84375C0 1.24219 0.464844 0.75 1.09375 0.75ZM9.34766 13.9062C9.34766 13.9196 9.3487 13.9326 9.35069 13.9453C9.3487 13.9326 9.34766 13.9196 9.34766 13.9062ZM8.3125 8.86195V8.6752C8.36245 8.70927 8.41417 8.74098 8.46751 8.77018C8.4149 8.79954 8.36322 8.83014 8.3125 8.86195ZM4 13.4688L4.00029 13.4375H2.625C2.37891 13.4375 2.1875 13.2461 2.1875 13V12.125H3.71875C4.07422 12.125 4.375 11.8516 4.375 11.4688C4.375 11.1133 4.07422 10.8125 3.71875 10.8125H2.1875V9.5H3.71875C4.07422 9.5 4.375 9.22656 4.375 8.84375C4.375 8.48828 4.07422 8.1875 3.71875 8.1875H2.1875V6.875H3.71875C4.07422 6.875 4.375 6.60156 4.375 6.21875C4.375 5.86328 4.07422 5.5625 3.71875 5.5625H2.1875V5.125H0.875V13C0.875 13.9844 1.64062 14.75 2.625 14.75H4.59016C4.22647 14.4496 4 13.9928 4 13.4688Z" fill="#E03030"/>
</svg>
