<svg width="20" height="16" viewBox="0 0 20 16" fill="none" xmlns="http://www.w3.org/2000/svg">
<path d="M11.8125 8.0625V9H14.9375V8.0625C14.9375 7.20312 14.2344 6.5 13.375 6.5C12.4961 6.5 11.8125 7.20312 11.8125 8.0625ZM10.5625 9V8.0625C10.5625 6.51953 11.8125 5.25 13.375 5.25C14.918 5.25 16.1875 6.51953 16.1875 8.0625V9H16.5C17.1836 9 17.75 9.56641 17.75 10.25V14C17.75 14.7031 17.1836 15.25 16.5 15.25H10.25C9.54688 15.25 9 14.7031 9 14V10.25C9 9.56641 9.54688 9 10.25 9H10.5625Z" fill="#941019"/>
<path fill-rule="evenodd" clip-rule="evenodd" d="M3.3125 2.9375V2.0625H11.1875V2.9375H3.3125ZM11.4062 0.75H3.09375C2.46484 0.75 2 1.24219 2 1.84375V3.15625C2 3.78516 2.46484 4.25 3.09375 4.25H11.4062C12.0078 4.25 12.5 3.78516 12.5 3.15625V1.84375C12.5 1.24219 12.0078 0.75 11.4062 0.75ZM4.1875 5.125H2.875V13C2.875 13.9844 3.64062 14.75 4.625 14.75H8.12493C8.04391 14.5161 8 14.2638 8 14V13.4375H4.625C4.37891 13.4375 4.1875 13.2461 4.1875 13V12.125H5.71875C6.07422 12.125 6.375 11.8516 6.375 11.4688C6.375 11.1133 6.07422 10.8125 5.71875 10.8125H4.1875V9.5H5.71875C6.07422 9.5 6.375 9.22656 6.375 8.84375C6.375 8.48828 6.07422 8.1875 5.71875 8.1875H4.1875V6.875H5.71875C6.07422 6.875 6.375 6.60156 6.375 6.21875C6.375 5.86328 6.07422 5.5625 5.71875 5.5625H4.1875V5.125Z" fill="#E03030"/>
</svg>
