<svg width="20" height="16" viewBox="0 0 20 16" fill="none" xmlns="http://www.w3.org/2000/svg">
<path d="M10.875 1.625V3.375C10.875 3.86719 10.4648 4.25 10 4.25C9.50781 4.25 9.125 3.86719 9.125 3.375V1.625C9.125 1.16016 9.50781 0.75 10 0.75C10.4648 0.75 10.875 1.16016 10.875 1.625ZM10.875 12.125V13.875C10.875 14.3672 10.4648 14.75 10 14.75C9.50781 14.75 9.125 14.3672 9.125 13.875V12.125C9.125 11.6602 9.50781 11.25 10 11.25C10.4648 11.25 10.875 11.6602 10.875 12.125ZM3 7.75C3 7.28516 3.38281 6.875 3.875 6.875H5.625C6.08984 6.875 6.5 7.28516 6.5 7.75C6.5 8.24219 6.08984 8.625 5.625 8.625H3.875C3.38281 8.625 3 8.24219 3 7.75ZM14.375 6.875H16.125C16.5898 6.875 17 7.28516 17 7.75C17 8.24219 16.5898 8.625 16.125 8.625H14.375C13.8828 8.625 13.5 8.24219 13.5 7.75C13.5 7.28516 13.8828 6.875 14.375 6.875ZM5.05078 2.80078C5.37891 2.47266 5.92578 2.47266 6.28125 2.80078L7.51172 4.05859C7.86719 4.38672 7.86719 4.96094 7.51172 5.28906C7.18359 5.64453 6.60938 5.64453 6.28125 5.28906L5.05078 4.05859C4.69531 3.70312 4.69531 3.15625 5.05078 2.80078ZM13.6914 10.2383L14.9492 11.4688C15.2773 11.8242 15.2773 12.3711 14.9492 12.6992C14.5938 13.0547 14.0469 13.0547 13.6914 12.6992L12.4609 11.4688C12.1328 11.1406 12.1328 10.5664 12.4609 10.2383C12.8164 9.88281 13.3633 9.88281 13.6914 10.2383ZM5.05078 12.6992V12.7266C4.69531 12.3711 4.69531 11.8242 5.05078 11.4688L6.28125 10.2383C6.60938 9.88281 7.18359 9.88281 7.51172 10.2383C7.86719 10.5664 7.86719 11.1406 7.51172 11.4688L6.28125 12.6992C5.92578 13.0547 5.37891 13.0547 5.05078 12.6992ZM12.4609 4.05859L13.6914 2.80078C14.0469 2.47266 14.5938 2.47266 14.9492 2.80078C15.2773 3.15625 15.2773 3.70312 14.9492 4.05859L13.6914 5.28906C13.3633 5.61719 12.8164 5.61719 12.4609 5.28906C12.1328 4.93359 12.1328 4.38672 12.4609 4.05859Z" fill="#136BC9"/>
</svg>
