<svg width="20" height="16" viewBox="0 0 20 16" fill="none" xmlns="http://www.w3.org/2000/svg">
<path d="M10 14.75C12.4883 14.75 14.7852 13.4375 16.043 11.25C17.3008 9.08984 17.3008 6.4375 16.043 4.25C14.7852 2.08984 12.4883 0.75 10 0.75C7.48438 0.75 5.1875 2.08984 3.92969 4.25C2.67188 6.4375 2.67188 9.08984 3.92969 11.25C5.1875 13.4375 7.48438 14.75 10 14.75ZM8.08594 4.49609L10 6.73828L11.8867 4.49609C12.1328 4.22266 12.543 4.19531 12.8164 4.41406C13.0898 4.66016 13.1172 5.07031 12.8984 5.34375L10.8477 7.75L12.8984 10.1836C13.1172 10.457 13.0898 10.8672 12.8164 11.1133C12.543 11.332 12.1328 11.3047 11.8867 11.0312L10 8.78906L8.08594 11.0312C7.83984 11.3047 7.42969 11.332 7.15625 11.1133C6.88281 10.8672 6.85547 10.457 7.07422 10.1836L9.125 7.75L7.07422 5.34375C6.85547 5.07031 6.88281 4.66016 7.15625 4.41406C7.42969 4.19531 7.83984 4.22266 8.08594 4.49609Z" fill="#E03030"/>
</svg>
