<svg width="20" height="17" viewBox="0 0 20 17" fill="none" xmlns="http://www.w3.org/2000/svg">
<path d="M5.5 3C4.65625 3 4 3.6875 4 4.5V8H7V4.5C7 3.6875 6.3125 3 5.5 3ZM2 4.5C2 2.59375 3.5625 1 5.5 1C7.40625 1 9 2.59375 9 4.5V11.5C9 13.4375 7.40625 15 5.5 15C3.5625 15 2 13.4375 2 11.5V4.5Z" fill="#136BC9"/>
<path d="M13 15.25C14.7773 15.25 16.418 14.3125 17.3164 12.75C18.2148 11.207 18.2148 9.3125 17.3164 7.75C16.418 6.20703 14.7773 5.25 13 5.25C11.2031 5.25 9.5625 6.20703 8.66406 7.75C7.76562 9.3125 7.76562 11.207 8.66406 12.75C9.5625 14.3125 11.2031 15.25 13 15.25ZM11.3008 8.49219C11.457 8.04297 11.8672 7.75 12.3359 7.75H13.4688C14.1523 7.75 14.7188 8.31641 14.7188 9C14.7188 9.42969 14.4648 9.83984 14.0938 10.0547L13.4688 10.4258C13.4492 10.6797 13.2539 10.875 13 10.875C12.7266 10.875 12.5312 10.6797 12.5312 10.4062V10.1523C12.5312 9.97656 12.6094 9.82031 12.7656 9.74219L13.625 9.25391C13.7227 9.19531 13.7812 9.09766 13.7812 9C13.7812 8.82422 13.6445 8.70703 13.4688 8.70703H12.3359C12.2773 8.70703 12.2188 8.74609 12.1992 8.80469L12.1797 8.82422C12.1016 9.07812 11.8281 9.19531 11.5938 9.11719C11.3398 9.01953 11.2227 8.74609 11.3008 8.51172V8.49219ZM12.375 12.125C12.375 11.793 12.6484 11.5 13 11.5C13.332 11.5 13.625 11.793 13.625 12.125C13.625 12.4766 13.332 12.75 13 12.75C12.6484 12.75 12.375 12.4766 12.375 12.125Z" fill="#00347D"/>
<path fill-rule="evenodd" clip-rule="evenodd" d="M17.3164 7.75C18.2148 9.3125 18.2148 11.207 17.3164 12.75C16.418 14.3125 14.7773 15.25 13 15.25C11.2031 15.25 9.5625 14.3125 8.66406 12.75C7.76562 11.207 7.76562 9.3125 8.66406 7.75C9.5625 6.20703 11.2031 5.25 13 5.25C14.7773 5.25 16.418 6.20703 17.3164 7.75ZM7.79852 13.2508C6.71923 11.3953 6.72284 9.1199 7.79716 7.25153L7.79987 7.2468C8.87536 5.39977 10.8431 4.25 13 4.25C15.1395 4.25 17.1062 5.40167 18.1806 7.24681L18.1833 7.25152C19.2577 9.11993 19.2612 11.3954 18.1819 13.2509C17.1039 15.1237 15.1326 16.25 13 16.25C10.85 16.25 8.87759 15.1255 7.79852 13.2508Z" fill="white"/>
</svg>
