<svg width="20" height="16" viewBox="0 0 20 16" fill="none" xmlns="http://www.w3.org/2000/svg">
<path d="M5.75 1.625C4.76562 1.625 4 2.41797 4 3.375V12.125C4 13.1094 4.76562 13.875 5.75 13.875H14.5C15.457 13.875 16.25 13.1094 16.25 12.125V3.375C16.25 2.41797 15.457 1.625 14.5 1.625H5.75ZM9.03125 9.9375H9.6875V8.1875H9.03125C8.64844 8.1875 8.375 7.91406 8.375 7.53125C8.375 7.17578 8.64844 6.875 9.03125 6.875H10.3438C10.6992 6.875 11 7.17578 11 7.53125V9.9375H11.2188C11.5742 9.9375 11.875 10.2383 11.875 10.5938C11.875 10.9766 11.5742 11.25 11.2188 11.25H9.03125C8.64844 11.25 8.375 10.9766 8.375 10.5938C8.375 10.2383 8.64844 9.9375 9.03125 9.9375ZM10.125 4.25C10.5898 4.25 11 4.66016 11 5.125C11 5.61719 10.5898 6 10.125 6C9.63281 6 9.25 5.61719 9.25 5.125C9.25 4.66016 9.63281 4.25 10.125 4.25Z" fill="#136BC9"/>
</svg>
