<svg width="20" height="16" viewBox="0 0 20 16" fill="none" xmlns="http://www.w3.org/2000/svg">
<path d="M10 1.625C10.3828 1.625 10.7383 1.84375 10.9297 2.17188L16.8359 12.2344C17.0273 12.5898 17.0273 13 16.8359 13.3281C16.6445 13.6836 16.2891 13.875 15.9062 13.875H4.09375C3.68359 13.875 3.32812 13.6836 3.13672 13.3281C2.94531 13 2.94531 12.5898 3.13672 12.2344L9.04297 2.17188C9.23438 1.84375 9.58984 1.625 10 1.625ZM10 5.125C9.61719 5.125 9.34375 5.42578 9.34375 5.78125V8.84375C9.34375 9.22656 9.61719 9.5 10 9.5C10.3555 9.5 10.6562 9.22656 10.6562 8.84375V5.78125C10.6562 5.42578 10.3555 5.125 10 5.125ZM10.875 11.25C10.875 10.7852 10.4648 10.375 10 10.375C9.50781 10.375 9.125 10.7852 9.125 11.25C9.125 11.7422 9.50781 12.125 10 12.125C10.4648 12.125 10.875 11.7422 10.875 11.25Z" fill="#B37E15"/>
</svg>
