<svg width="20" height="16" viewBox="0 0 20 16" fill="none" xmlns="http://www.w3.org/2000/svg">
<path d="M16.8086 7.14844L13.9375 2.25391C13.7188 1.87109 13.3086 1.625 12.8711 1.625H7.10156C6.66406 1.625 6.25391 1.87109 6.03516 2.25391L3.16406 7.14844C2.91797 7.53125 2.91797 7.99609 3.16406 8.37891L6.03516 13.2734C6.25391 13.6562 6.66406 13.875 7.10156 13.875H12.8711C13.3086 13.875 13.7188 13.6562 13.9375 13.2734L16.8086 8.37891C17.0547 7.99609 17.0547 7.53125 16.8086 7.14844ZM9.34375 4.90625C9.34375 4.55078 9.61719 4.25 10 4.25C10.3555 4.25 10.6562 4.55078 10.6562 4.90625V8.40625C10.6562 8.78906 10.3555 9.0625 10 9.0625C9.61719 9.0625 9.34375 8.78906 9.34375 8.40625V4.90625ZM10 11.6875C9.50781 11.6875 9.125 11.3047 9.125 10.8398C9.125 10.375 9.50781 9.99219 10 9.99219C10.4648 9.99219 10.8477 10.375 10.8477 10.8398C10.8477 11.3047 10.4648 11.6875 10 11.6875Z" fill="#E03030"/>
</svg>
